<svg width="48.000000" height="48.000000" viewBox="0 0 48 48" fill="none" xmlns="http://www.w3.org/2000/svg" xmlns:xlink="http://www.w3.org/1999/xlink">
	<desc>
			Created with Pixso.
	</desc>
	<defs>
		<clipPath id="clip5247_489">
			<rect id="user 1" width="24.000000" height="24.000000" transform="translate(12.000000 12.000000)" fill="white" fill-opacity="0"/>
		</clipPath>
		<clipPath id="clip5247_488">
			<rect id="icon" rx="16.000000" width="48.000000" height="48.000000" fill="white" fill-opacity="0"/>
		</clipPath>
		<linearGradient id="paint_linear_5247_488_0" x1="0.000000" y1="0.000011" x2="47.999992" y2="48.000023" gradientUnits="userSpaceOnUse">
			<stop stop-color="#FAEAFC"/>
			<stop offset="1.000000" stop-color="#E8F6FF"/>
		</linearGradient>
	</defs>
	<rect id="icon" rx="16.000000" width="48.000000" height="48.000000" fill="url(#paint_linear_5247_488_0)" fill-opacity="1.000000"/>
	<g clip-path="url(#clip5247_488)">
		<rect id="user 1" width="24.000000" height="24.000000" transform="translate(12.000000 12.000000)" fill="#FFFFFF" fill-opacity="0"/>
		<g clip-path="url(#clip5247_489)">
			<path id="Vector" d="M24 24C25.1865 24 26.3467 23.6481 27.333 22.9888C28.3203 22.3295 29.0889 21.3925 29.543 20.2961C29.9971 19.1998 30.1162 17.9933 29.8848 16.8295C29.6533 15.6656 29.082 14.5965 28.2422 13.7574C27.4033 12.9182 26.334 12.3468 25.1709 12.1153C24.0068 11.8838 22.7998 12.0026 21.7041 12.4567C20.6074 12.9109 19.6709 13.6799 19.0107 14.6666C18.3516 15.6533 18 16.8133 18 18C18.002 19.5908 18.6338 21.116 19.7588 22.2409C20.8838 23.3658 22.4092 23.9984 24 24ZM24 14C24.791 14 25.5645 14.2346 26.2227 14.6741C26.8799 15.1136 27.3926 15.7384 27.6953 16.4693C27.998 17.2002 28.0771 18.0044 27.9229 18.7804C27.7686 19.5563 27.3877 20.269 26.8281 20.8284C26.2686 21.3878 25.5566 21.7688 24.7803 21.9231C24.0049 22.0775 23.2002 21.9983 22.4697 21.6955C21.7383 21.3928 21.1133 20.8801 20.6738 20.2223C20.2344 19.5645 20 18.7911 20 18C20 16.9391 20.4219 15.9217 21.1719 15.1716C21.9219 14.4214 22.9395 14 24 14Z" fill="#000000" fill-opacity="1.000000" fill-rule="nonzero"/>
			<path id="Vector" d="M24 26C21.6143 26.0026 19.3262 26.9517 17.6387 28.639C15.9521 30.3262 15.0029 32.6139 15 35C15 35.2652 15.1055 35.5196 15.293 35.7071C15.4805 35.8946 15.7344 36 16 36C16.2656 36 16.5195 35.8946 16.707 35.7071C16.8945 35.5196 17 35.2652 17 35C17 33.1435 17.7373 31.363 19.0498 30.0502C20.3633 28.7375 22.1436 28 24 28C25.8564 28 27.6367 28.7375 28.9502 30.0502C30.2627 31.363 31 33.1435 31 35C31 35.2652 31.1055 35.5196 31.293 35.7071C31.4805 35.8946 31.7344 36 32 36C32.2656 36 32.5195 35.8946 32.707 35.7071C32.8945 35.5196 33 35.2652 33 35C32.9971 32.6139 32.0479 30.3262 30.3613 28.639C28.6738 26.9517 26.3857 26.0026 24 26Z" fill="#000000" fill-opacity="1.000000" fill-rule="nonzero"/>
		</g>
	</g>
</svg>
