<svg width="48.000000" height="48.000000" viewBox="0 0 48 48" fill="none" xmlns="http://www.w3.org/2000/svg" xmlns:xlink="http://www.w3.org/1999/xlink">
	<desc>
			Created with Pixso.
	</desc>
	<defs>
		<clipPath id="clip5247_485">
			<rect id="icon" width="24.000000" height="24.000000" transform="translate(12.000000 12.000000)" fill="white" fill-opacity="0"/>
		</clipPath>
		<clipPath id="clip5247_484">
			<rect id="icon" rx="16.000000" width="48.000000" height="48.000000" fill="white" fill-opacity="0"/>
		</clipPath>
		<linearGradient id="paint_linear_5247_484_0" x1="0.000000" y1="0.000011" x2="47.999992" y2="48.000023" gradientUnits="userSpaceOnUse">
			<stop stop-color="#FAEAFC"/>
			<stop offset="1.000000" stop-color="#E8F6FF"/>
		</linearGradient>
	</defs>
	<rect id="icon" rx="16.000000" width="48.000000" height="48.000000" fill="url(#paint_linear_5247_484_0)" fill-opacity="1.000000"/>
	<g clip-path="url(#clip5247_484)">
		<rect id="icon" width="24.000000" height="24.000000" transform="translate(12.000000 12.000000)" fill="#FFFFFF" fill-opacity="0"/>
		<g clip-path="url(#clip5247_485)">
			<path id="Vector" d="M24 24C22.9004 24 22 23.1 22 22C22 20.9 22.9004 20 24 20C25.0996 20 26 20.9 26 22C26 23.1 25.0996 24 24 24ZM30 22.2C30 18.57 27.3496 16 24 16C20.6504 16 18 18.57 18 22.2C18 24.339 19.6299 27.1131 23.0029 30.4001C23.5586 30.9416 24.4414 30.9416 24.9971 30.4001C28.3701 27.1131 30 24.339 30 22.2ZM24 14C28.2002 14 32 17.22 32 22.2C32 25.3134 29.6523 28.9631 24.9639 33.1576C24.415 33.6494 23.585 33.6494 23.0361 33.1576C18.3477 28.9631 16 25.3134 16 22.2C16 17.22 19.7998 14 24 14Z" fill="#282828" fill-opacity="1.000000" fill-rule="nonzero"/>
		</g>
	</g>
</svg>
