<svg width="48.000000" height="48.000000" viewBox="0 0 48 48" fill="none" xmlns="http://www.w3.org/2000/svg" xmlns:xlink="http://www.w3.org/1999/xlink">
	<desc>
			Created with Pixso.
	</desc>
	<defs>
		<clipPath id="clip5247_495">
			<rect id="popcorn 1" width="24.000000" height="24.000000" transform="translate(12.000000 12.000000)" fill="white" fill-opacity="0"/>
		</clipPath>
		<clipPath id="clip5247_494">
			<rect id="icon" rx="16.000000" width="48.000000" height="48.000000" fill="white" fill-opacity="0"/>
		</clipPath>
		<linearGradient id="paint_linear_5247_494_0" x1="0.000000" y1="0.000011" x2="47.999992" y2="48.000023" gradientUnits="userSpaceOnUse">
			<stop stop-color="#FAEAFC"/>
			<stop offset="1.000000" stop-color="#E8F6FF"/>
		</linearGradient>
	</defs>
	<rect id="icon" rx="16.000000" width="48.000000" height="48.000000" fill="url(#paint_linear_5247_494_0)" fill-opacity="1.000000"/>
	<g clip-path="url(#clip5247_494)">
		<rect id="popcorn 1" width="24.000000" height="24.000000" transform="translate(12.000000 12.000000)" fill="#FFFFFF" fill-opacity="0"/>
		<g clip-path="url(#clip5247_495)">
			<path id="Vector" d="M33.918 25.5091L31.8203 36.0001L16.1807 36.0001L14.0801 25.5091C13.4551 25.1689 12.9326 24.6675 12.5664 24.057C12.2002 23.4465 12.0039 22.7491 11.998 22.0373C11.9922 21.3254 12.1777 20.625 12.5342 20.0088C12.8906 19.3926 13.4053 18.883 14.0254 18.5331C14.127 17.6779 14.502 16.8783 15.0938 16.2528C15.6855 15.6272 16.4629 15.209 17.3115 15.0601C17.6191 14.3631 18.1494 13.7876 18.8184 13.423C19.4883 13.0584 20.2588 12.9252 21.0117 13.0441C21.4053 12.642 21.8906 12.3412 22.4258 12.1674C22.9609 11.9936 23.5312 11.9518 24.0859 12.0457C24.6406 12.1397 25.165 12.3665 25.6133 12.7068C26.0615 13.0471 26.4209 13.4908 26.6602 14.0001C27.5732 14.0431 28.4326 14.4437 29.0527 15.1151C29.3623 15.0376 29.6807 14.9989 30 15.0001C30.9805 15.0013 31.9258 15.3615 32.6572 16.0125C33.3896 16.6635 33.8574 17.5602 33.9736 18.5331C34.5938 18.883 35.1084 19.3926 35.4648 20.0088C35.8213 20.625 36.0059 21.3254 36.001 22.0373C35.9951 22.7491 35.7988 23.4465 35.4326 24.057C35.0664 24.6675 34.5439 25.1689 33.918 25.5091ZM20.3691 34.0001L20 27.9911C19.9941 27.4634 19.7812 26.9593 19.4072 26.587C19.0332 26.2147 18.5283 26.004 18 26.0001L16.2207 26.0001L17.8203 34.0001L20.3691 34.0001ZM25.4561 34.0001L26 27.9641C25.9961 27.4336 25.7803 26.9268 25.4023 26.5551C25.0234 26.1834 24.5127 25.9773 23.9824 25.9821C23.4521 25.9868 22.9453 26.2021 22.5732 26.5806C22.2021 26.959 21.9961 27.4696 22 28.0001L22.3721 34.0001L25.4561 34.0001ZM31.7803 26.0001L30 26.0001C29.4697 26.0001 28.9609 26.2108 28.5859 26.5858C28.2109 26.9609 28 27.4696 28 28.0001L27.4639 34.0001L30.1807 34.0001L31.7803 26.0001ZM32 24.0001C32.4717 24.0016 32.9277 23.836 33.2891 23.5329C33.6494 23.2298 33.8916 22.8087 33.9707 22.3443C34.0508 21.8798 33.9629 21.4022 33.7246 20.9961C33.4854 20.59 33.1104 20.2818 32.665 20.1261L32 19.8891L32 19.0001C31.998 18.6623 31.9111 18.3305 31.7461 18.0357C31.5811 17.7409 31.3438 17.4926 31.0576 17.3141C30.7705 17.1356 30.4434 17.0326 30.1064 17.0147C29.7686 16.9969 29.4326 17.0648 29.1279 17.2121L28.2676 17.6331L27.8105 16.7921C27.6836 16.5546 27.4941 16.3557 27.2637 16.2164C27.0332 16.077 26.7695 16.0023 26.5 16.0001C26.4004 16.0001 25.1533 16.2661 25.1533 16.2661L24.9717 15.2381C24.9199 14.9394 24.7793 14.6635 24.5664 14.4472C24.3545 14.2308 24.0811 14.0843 23.7842 14.0272C23.4863 13.97 23.1787 14.005 22.9014 14.1273C22.624 14.2497 22.3906 14.4537 22.2324 14.7121L21.793 15.4121L21.0215 15.1121C20.8564 15.0426 20.6797 15.0046 20.5 15.0001C20.1543 15 19.8193 15.1194 19.5518 15.3381C19.2832 15.5567 19.0996 15.8613 19.0303 16.2001L18.8691 17.0001L17.9453 17.0001C17.4248 17.0144 16.9297 17.2314 16.5664 17.6049C16.2031 17.9785 16 18.479 16 19.0001L16 19.8901L15.335 20.1261C14.8906 20.2818 14.5156 20.59 14.2764 20.9961C14.0371 21.4022 13.9502 21.8798 14.0303 22.3443C14.1094 22.8087 14.3516 23.2298 14.7119 23.5329C15.0723 23.836 15.5293 24.0016 16 24.0001L18 24.0001C18.5684 24 19.1299 24.121 19.6465 24.355C20.1641 24.589 20.626 24.9306 21 25.3571C21.375 24.9312 21.8359 24.5899 22.3525 24.356C22.8682 24.122 23.4287 24.0007 23.9961 24.0001C24.5635 23.9996 25.124 24.1198 25.6406 24.3527C26.1572 24.5856 26.6191 24.9259 26.9941 25.3511C27.3721 24.9266 27.835 24.5868 28.3525 24.354C28.8711 24.1211 29.4326 24.0005 30 24.0001L32 24.0001Z" fill="#000000" fill-opacity="1.000000" fill-rule="nonzero"/>
		</g>
	</g>
</svg>
