<svg width="48.000000" height="48.000000" viewBox="0 0 48 48" fill="none" xmlns="http://www.w3.org/2000/svg" xmlns:xlink="http://www.w3.org/1999/xlink">
	<desc>
			Created with Pixso.
	</desc>
	<defs>
		<clipPath id="clip5247_500">
			<rect id="icon" width="24.000000" height="24.000000" transform="translate(12.000000 12.000000)" fill="white" fill-opacity="0"/>
		</clipPath>
		<clipPath id="clip5247_499">
			<rect id="icon" rx="16.000000" width="48.000000" height="48.000000" fill="white" fill-opacity="0"/>
		</clipPath>
		<linearGradient id="paint_linear_5247_499_0" x1="0.000000" y1="0.000011" x2="47.999992" y2="48.000023" gradientUnits="userSpaceOnUse">
			<stop stop-color="#FAEAFC"/>
			<stop offset="1.000000" stop-color="#E8F6FF"/>
		</linearGradient>
	</defs>
	<rect id="icon" rx="16.000000" width="48.000000" height="48.000000" fill="url(#paint_linear_5247_499_0)" fill-opacity="1.000000"/>
	<g clip-path="url(#clip5247_499)">
		<rect id="icon" width="24.000000" height="24.000000" transform="translate(12.000000 12.000000)" fill="#FFFFFF" fill-opacity="0"/>
		<g clip-path="url(#clip5247_500)">
			<path id="Vector" d="M23.8613 13.2181C24.2344 13.1163 24.5771 13.4588 24.4756 13.8321L22.8105 19.9348C22.71 20.3052 22.2461 20.4283 21.9746 20.1568L17.5361 15.7184C17.2646 15.447 17.3877 14.9835 17.7588 14.8825L23.8613 13.2181ZM18.6982 18.995C19.0889 19.3856 19.0889 20.0187 18.6982 20.4093L17.7119 21.3956C17.1953 21.9117 16.9307 22.6275 16.9873 23.3551C17.0811 24.5846 18.0586 25.5615 19.2881 25.6561C20.0156 25.712 20.7314 25.4472 21.2471 24.9312L25.335 20.8438C26.2637 19.9149 27.5518 19.4383 28.8613 19.539C31.0752 19.7092 32.833 21.4676 33.0029 23.6806C33.1045 24.9904 32.6279 26.2788 31.6982 27.2077L30.7188 28.1874C30.3281 28.578 29.6953 28.578 29.3047 28.1874C28.9141 27.7969 28.9141 27.1637 29.3047 26.7732L30.2842 25.7935C30.8008 25.2775 31.0654 24.5617 31.0098 23.834C30.915 22.6046 29.9375 21.6277 28.708 21.5331C27.9805 21.4772 27.2646 21.7419 26.749 22.258L22.6611 26.3454C21.7324 27.2743 20.4443 27.7509 19.1348 27.6502C16.9209 27.4799 15.1631 25.7216 14.9932 23.5085C14.8916 22.1988 15.3682 20.9103 16.2979 19.9814L17.2842 18.995C17.6748 18.6045 18.3076 18.6045 18.6982 18.995ZM23.6455 33.8477C24.9141 35.1169 26.9727 35.1169 28.2412 33.8477C29.5107 32.5785 29.5107 30.5207 28.2412 29.2515C26.9727 27.9823 24.9141 27.9823 23.6455 29.2515C22.376 30.5207 22.376 32.5785 23.6455 33.8477Z" fill="#282828" fill-opacity="1.000000" fill-rule="evenodd"/>
		</g>
	</g>
</svg>
