<svg width="48.000000" height="48.000000" viewBox="0 0 48 48" fill="none" xmlns="http://www.w3.org/2000/svg" xmlns:xlink="http://www.w3.org/1999/xlink">
	<desc>
			Created with Pixso.
	</desc>
	<defs>
		<clipPath id="clip5247_558">
			<rect id="icon" width="24.000000" height="24.000000" transform="translate(12.000000 12.000000)" fill="white" fill-opacity="0"/>
		</clipPath>
		<clipPath id="clip5247_557">
			<rect id="icon" rx="16.000000" width="48.000000" height="48.000000" fill="white" fill-opacity="0"/>
		</clipPath>
		<linearGradient id="paint_linear_5247_557_0" x1="0.000000" y1="0.000011" x2="47.999992" y2="48.000023" gradientUnits="userSpaceOnUse">
			<stop stop-color="#FAEAFC"/>
			<stop offset="1.000000" stop-color="#E8F6FF"/>
		</linearGradient>
	</defs>
	<rect id="icon" rx="16.000000" width="48.000000" height="48.000000" fill="url(#paint_linear_5247_557_0)" fill-opacity="1.000000"/>
	<g clip-path="url(#clip5247_557)">
		<rect id="icon" width="24.000000" height="24.000000" transform="translate(12.000000 12.000000)" fill="#FFFFFF" fill-opacity="0"/>
		<g clip-path="url(#clip5247_558)">
			<path id="Vector" d="M27.5 13L19.5 13C18.1201 13 17 14.12 17 15.5L17 32.5C17 33.88 18.1201 35 19.5 35L27.5 35C28.8799 35 30 33.88 30 32.5L30 15.5C30 14.12 28.8799 13 27.5 13ZM23.5 34C22.6699 34 22 33.33 22 32.5C22 31.67 22.6699 31 23.5 31C24.3301 31 25 31.67 25 32.5C25 33.33 24.3301 34 23.5 34ZM28 30L19 30L19 16L28 16L28 30Z" fill="#282828" fill-opacity="1.000000" fill-rule="nonzero"/>
		</g>
	</g>
</svg>
