<svg width="112.000000" height="88.000000" viewBox="0 0 112 88" fill="none" xmlns="http://www.w3.org/2000/svg" xmlns:xlink="http://www.w3.org/1999/xlink">
	<desc>
			Created with Pixso.
	</desc>
	<defs>
		<filter id="filter_5247_515_dd" x="0.000000" y="0.000000" width="112.000000" height="88.000000" filterUnits="userSpaceOnUse" color-interpolation-filters="sRGB">
			<feFlood flood-opacity="0" result="BackgroundImageFix"/>
			<feColorMatrix in="SourceAlpha" type="matrix" values="0 0 0 0 0 0 0 0 0 0 0 0 0 0 0 0 0 0 127 0" result="hardAlpha"/>
			<feOffset dx="0" dy="8"/>
			<feGaussianBlur stdDeviation="8"/>
			<feComposite in2="hardAlpha" operator="out" k2="-1" k3="1"/>
			<feColorMatrix type="matrix" values="0 0 0 0 0.18039 0 0 0 0 0.34118 0 0 0 0 0.52157 0 0 0 0.078 0"/>
			<feBlend mode="normal" in2="BackgroundImageFix" result="effect_dropShadow_1"/>
			<feBlend mode="normal" in="SourceGraphic" in2="effect_dropShadow_1" result="shape"/>
		</filter>
		<clipPath id="clip5247_516">
			<rect id="icon" width="24.000000" height="24.000000" transform="translate(32.000000 24.000000)" fill="white" fill-opacity="0"/>
		</clipPath>
		<clipPath id="clip5247_517">
			<rect id="icon" width="24.000000" height="24.000000" transform="translate(56.000000 24.000000)" fill="white" fill-opacity="0"/>
		</clipPath>
	</defs>
	<g filter="url(#filter_5247_515_dd)">
		<rect id="бегунок" rx="20.000000" width="64.000000" height="40.000000" transform="translate(24.000000 16.000000)" fill="#FFFFFF" fill-opacity="1.000000"/>
		<rect id="icon" width="24.000000" height="24.000000" transform="translate(32.000000 24.000000)" fill="#FFFFFF" fill-opacity="0"/>
		<g clip-path="url(#clip5247_516)">
			<path id="Vector" d="M46.7109 30.71C46.3203 30.3199 45.6904 30.3199 45.3008 30.71L40.7109 35.2999C40.3203 35.6899 40.3203 36.3199 40.7109 36.71L45.3008 41.2999C45.6904 41.6899 46.3203 41.6899 46.7109 41.2999C47.1006 40.91 47.1006 40.28 46.7109 39.89L42.8301 36L46.7109 32.12C47.1006 31.73 47.0908 31.09 46.7109 30.71Z" fill="#0077FF" fill-opacity="1.000000" fill-rule="nonzero"/>
		</g>
		<rect id="icon" width="24.000000" height="24.000000" transform="translate(56.000000 24.000000)" fill="#FFFFFF" fill-opacity="0"/>
		<g clip-path="url(#clip5247_517)">
			<path id="Vector" d="M65.29 30.7098C64.8994 31.0997 64.8994 31.7297 65.29 32.1198L69.1699 35.9998L65.29 39.8798C64.8994 40.2698 64.8994 40.8998 65.29 41.2898C65.6797 41.6798 66.3096 41.6798 66.6992 41.2898L71.29 36.6998C71.6797 36.3098 71.6797 35.6798 71.29 35.2898L66.6992 30.6998C66.3193 30.3198 65.6797 30.3198 65.29 30.7098Z" fill="#0077FF" fill-opacity="1.000000" fill-rule="nonzero"/>
		</g>
	</g>
</svg>
